<?xml version="1.0" encoding="utf-8"?>
<!-- Generator: Adobe Illustrator 22.0.1, SVG Export Plug-In . SVG Version: 6.00 Build 0)  -->
<svg version="1.1" id="Layer_2_1_" xmlns="http://www.w3.org/2000/svg" xmlns:xlink="http://www.w3.org/1999/xlink" x="0px" y="0px"
	 viewBox="0 0 568.4 326.5" style="enable-background:new 0 0 568.4 326.5;" xml:space="preserve">
<style type="text/css">
	.st0{enable-background:new    ;}
	.st1{fill:none;stroke:#FFFFFF;stroke-width:3;stroke-miterlimit:10;}
	.st2{fill:#FFFFFF;}
</style>
<title>title</title>
<g class="st0">
	<path class="st1" d="M245.2,18.8l-3.3,15.4l-0.4,1.8l-1,6.8l-0.4,1.8l-1.8,6.9l-0.3,1.8l-0.9,6.8l-0.4,2l-2,6.5l-0.4,2l-0.8,6.9
		l-0.3,1.8l-2,6.8l-0.3,1.8l-1.1,6.8l-0.3,1.9l-1,6.8l-0.3,1.2l-0.5,0.7l-0.8,0.2l-7.8,1l-9.1,0.8l-1.2-0.1l-0.7-0.8l-3.8-5.2
		l-0.8-1.5l-3-5.7l-0.7-1.5l-3-5.6l-0.8-1.5l-3.2-5.5l-0.9-1.5l-3-5.5l-0.7-1l-0.3,0.1l-0.3,1.1l-1.2,6.2l-0.3,1.7l-1.9,6l-0.3,1.7
		l-0.9,6.4l-0.3,1.7l-1.1,6.2l-0.4,1.7l-1.3,6.1l-0.4,1.4l-1.2,0.8l-7.3,0.5l-1.9,0.3l-7.1,1.7l-1.1-0.4l-0.7-1.3l-4.2-5.7l-0.8-1.6
		l-2.6-6.3l-0.8-1.6l-3.9-6l-1-1.6l-3.4-5.9l-0.9-1.8l-3-6.3l-0.8-1.6l-8-13.7l-1-1.6l-3.1-6.2l-1.1-1.7l-3.8-5.6l-1.1-1.6l-3.7-6.2
		l-0.3-1.4l0.6-0.9l1.2-0.5l1.7-0.3l4.6-0.3l1.9-0.3l8-1.1l6.2-1l1.5-0.1l0.5,0.4l0.4,1.1l3.8,7.2L148,43l3.5,7l0.8,1.6l4.1,6.5
		l0.8,1.6l3.4,6.7l0.6,1.8l2.5,7.1l0.6,1l0.7,0l0.6-1l1.1-6.2l0.3-1.7l0.6-6.4l0.2-1.8l0.9-5.9l0.2-1.8l1-6.3l0.2-1.7l0.9-6.3
		l0.3-1.7l1-5.2l0.3-1.3l0.5-0.7l1.2-0.4l5.7-1.4l1.7-0.4l2.6-0.3l1.7-0.3l1.8-0.2l1.2,0.3l0.9,1.1l0.5,0.9l0.9,1.5l1.8,3l0.8,1.5
		l2.7,5.7l0.7,1.5l2.8,5.7l0.7,1.5l2.3,5.9l0.8,1.5l3.6,5.2l0.7,1.5l0.8,2.6l0.6,1.8l0.7,1.7l0.8,0.8l0.7-0.2l0.4-1.4l0.4-6.9
		l0.2-1.8l0.6-2.6l0.3-1.8l0.5-2.7l0.3-1.9l0.3-5.6l0.3-1.9l1.2-5.5l0.4-1.8l1.4-5.5l0.3-1.8l0.5-4.6l0.2-1.5l0.6-0.9l1.4-0.4
		l6.2-0.5l1.9-0.3l6.2-1.3l1.8-0.3l6.2-0.5l1.3-0.2l0.5,0.3L245.2,18.8z"/>
</g>
<g class="st0">
	<path class="st1" d="M288.6,83.8l0.1,1.9l-0.3,6.3l0.1,1.9l0.1,6.4l0,1.3l-0.3,0.7l-0.9,0.3l-1.6,0.2l-6,0l-7.3,0.2l-5.9-0.3
		l-0.7-0.2l-0.4-0.3l0-1.2l-0.3-2.9l-0.1-1.9l-0.2-1.8l0-1.8l-0.5-6.3l0.1-1.9l0.2-6.3l0.1-1.9l-0.5-6.4l-0.1-1.9l-0.3-6.3
		l-0.3-10.1l-0.3-6.4l-0.1-1.9l-0.1-6.3l-0.3-10.1l-0.4-6.4l0.3-1.3l0.7-0.5l1.2-0.1l0.9,0l1.8-0.2l2.8,0l1.9-0.1l5.4-0.4l7.3-0.2
		l1.3,0.2l0.3,0.7l0.2,1.3l0.3,3l0.2,1.9l0.3,11.5l0.3,6.3l0.1,1.9l0.1,6.4l0.1,1.9l0.3,6.3l0.1,1.9l-0.1,6.3l0.3,10.2L288.6,83.8z"
		/>
</g>
<g class="st0">
	<path class="st1" d="M369,99.5l-0.2,1.9l-0.1,1.1l-0.4,1.4l-0.7,0.8l-0.8,0.3l-1.2,0.2l-0.9-0.1l-1.6,0l-12.9-1.4l-8.8-0.5
		l-10.6,0.1l-6.7-0.9l-8.6-0.5l-5.4,0l-1.8-0.1l-1.6-0.2l-1.3-0.3l-0.8-0.5l-0.5-0.7l-0.2-1.4l0.1-1.9l0.8-4.4l0.2-1.7l-0.1-6.2
		l0.1-1.9l0.6-6.2l0.1-1.9l1.1-14.2l0.1-1.9l0.4-14.3l0.1-1.9l0.2-6.2l0.6-9.9l0-3.5l0.1-1.8l0.2-1l0.4-1.5l0.5-0.7l0.8-0.3l1.3-0.2
		l0.9,0.1l1.8,0l5.7,0.7l1.9,0.1l8.3,0.4l1.2,0.1l0.8,0.5l0.5,0.9l-0.6,10.2l-0.2,6.8l-0.1,1.9l-0.7,6.8l-0.1,1.9l-0.2,6.8l-0.1,1.9
		l0,6.8l-0.1,1.9l-1.6,15.4l0,1.2l0.1,0.6l0.2,0.6l0.6,0.5L331,83l4,0.5l3.5,0l1.9,0.1l16.8,0.7l1.9,0l4-0.2l1.9,0l1.8,0.1l1.4,0.4
		l0.8,0.7l0.3,0.8l0,1.3l-0.3,6.5l0,1.9L369,99.5z"/>
</g>
<g class="st0">
	<path class="st1" d="M465.3,81.1l-0.5,1.9l-0.6,2.7l-0.7,1.8l-1.3,2.5l-0.9,1.7l-1,1.6l-1,1.7l-1.1,1.8l-1,1.6l-1.7,2.3l-1.2,1.3
		l-2,1.5l-1.4,1.1l-2.3,1.5l-3,2.1l-1.7,1l-2.5,1.3l-1.7,0.6l-2.5,0.8l-1.6,0.4l-2.7,0.4l-1.8,0.3l-1.9,0.1l-1.9,0l-7.2-0.3
		l-1.7-0.2l-2.6-0.2l-1.8-0.3l-3.7-0.8l-2.9-0.8l-1.8-0.3l-3.7-0.5l-2.9-0.4l-2-0.3l-1.7-0.4l-8.1-1.5l-1.7-0.4l-4.9-1.4l-0.8-0.6
		l-0.5-0.7l0-1.3l0.2-1.9l0.3-0.9l0.9-3.4l0.3-1.6l0.6-2.6l0.3-1.7l0.5-1.8l0.3-1.8l1-6.1l0.3-1.8l0.9-6.1l0.4-1.7l0.6-2.5l0.6-1.7
		l0.5-1.9l0.3-1.8l0.3-3l0.3-2l0.2-1l0.2-2l1.6-6l0.3-1.8l1-6.1l0.3-1.8l0.8-6.2l0.8-4.5l0.5-1.8l0.7-1.7l0.5-1.2l0.6-0.6l1.3-0.1
		l2,0.1l1.8,0.1l1.9,0.2l10.1,2l1.8,0.3l5.5,1.4l0.9,0.3l2.1,0.4l4.9,0.7l1.7,0.2l1.8,0.3l2.8,0.8l3.6,0.9l1.8,0.6l2.9,1l1.8,0.7
		l1.6,0.8l3.9,2.3l1.6,1.1l1.6,1.2l1.4,1.2l3.3,3.4l1.3,1.5l1.2,1.4l2.1,2.9l0.9,1.4l0.8,1.5l0.5,1.6l0.8,2.8l0.4,1.9l0.2,1.9l0.3,2
		l0.2,1.9l0.1,1.9l0,2.6l0,1.9l0,2l-0.1,1.9l-0.4,2.8l-0.2,1.9L465.3,81.1z M437.3,86l1.1-1.6l1.1-1.8l0.8-1.6l0.9-2.4l0.4-1.6
		l0.6-2.6l0.7-3.7l0.2-1.9l0.2-2.7l-0.1-1.8l-0.1-0.7l-0.6-1.9l-1.3-2.7l-0.5-0.7l-0.9-1.5l-1-1.5l-1.2-1.3l-2.2-2l-1.5-1l-1.5-0.6
		l-1.8-0.7l-2.9-0.7l-1.9-0.5l-2.9-0.5l-2.5-0.6l-1.7-0.2l-2.6-0.1l-1.3,0.1l-0.7,0.5l-0.6,1.3l-0.3,1l-0.4,1.7l-0.4,3.5L412,57
		l-0.2,2.6l-0.1,1.9l-0.2,1.9l-0.3,1.8l-0.6,2.5l-1,5.5l-0.5,1.9l-0.5,1.8l-0.7,2.5l-0.3,1.6l-0.6,2.6l-0.2,1.7l-0.2,2.8l0.2,1.4
		l0.6,0.7l1.4,0.4l10.8,1.3l2.7,0.4l1.9,0l2.1-0.2l2-0.3l1.9-0.5l1.7-0.8l2.4-1.5l1.4-1.2L437.3,86z"/>
</g>
<g class="st0">
	<path class="st1" d="M186,251.4l-0.4,1.8l-0.7,3l-0.6,1.7l-1.2,2.3l-0.9,1.5l-1.5,2l-1.3,1.3l-2.2,1.9l-1.5,1.1l-3.2,1.6l-1.6,0.7
		l-1.7,0.6l-1.9,0.5l-1.9,0.3l-1.8,0.3l-5.4,0.2l-2.7-0.1l-1.9-0.2l-2.8-0.2l-1.8-0.3l-6.4-0.8l-10.1-1.6l-6.4-1.4l-1.8-0.3
		l-6.4-0.8l-1.7-0.3l-4.4-0.8l-1.8-0.5l-1.6-0.5l-0.9-0.5l-0.5-0.7l0-1.3l0.1-1.6l0.4-1.7l0.3-1.9l0.3-0.9l0.3-2l1.3-6.1l0.2-1.9
		l0.3-2.9l0.2-1.8l0.1-1.6l0.3-1.7l0.6-2.9l0.8-5.1l1.4-6.1l0.3-1.8l0.7-6.2l0.3-1.8l0.8-6.1l0.4-1.8l1.3-6.1l0.4-1.8l0.5-6.2
		l0.2-1.9l0.2-3.5l0.4-2.7l0.7-1.4l1.3-0.5l1.7,0l1.9,0.2l12.7,1.6l10,2.1l6.3,0.7l1.8,0.3l6.3,1.1l1.8,0.3l6.6,1.5l1.9,0.5l1.9,0.7
		l4.2,2.1l1.6,1.1l2,1.5l1.3,1.3l1.7,1.9l1,1.5l1.3,2.2l0.6,1.6l0.9,2.4l0.4,1.7l0.3,1.8l0.1,1.9l0,3.1l-0.2,1.9l-0.4,1.9l-0.7,1.9
		l-1.1,2.5l-0.9,1.5l-1.6,2l-1.4,1.1l-2.1,1.4l-1.1,0.8l-0.5,0.8l0.2,1l0.9,1.3l1.2,1.5l1.2,1.7l1.4,2.7l0.8,1.9l0.5,2l0.3,1
		l0.3,1.9l0.2,2l-0.1,2L186,251.4z M159.1,253l1.1-0.7l0.6-0.6l1.1-1.6l0.6-1.8l0.2-0.7l0.1-1.6l-0.1-1.7l-0.7-1.8l-0.6-0.9
		l-1.3-1.7l-1.7-1.3l-1.6-0.8l-0.8-0.4l-1.6-0.4l-5.2-0.6l-2-0.2l-6.8-1.1l-1.8-0.2l-2.1,0l-1.1,0.2l-0.4,0.5l-0.3,1.4l-0.3,2
		l-0.2,1.9l-0.4,2.5l-0.5,1.9l-0.4,2.3l0,1.3l0.4,0.8l0.7,0.6l1.5,0.5l16.4,2.2l4,0.4l1.9-0.1L159.1,253z M138.3,211.6l0,0.9
		l-0.2,1.9l0,1.3l0.4,0.8l0.9,0.6l1.4,0.3l4.6,0.7l2,0.2l2,0.3l2.6,0.6l3.9,0.8l2.5,0.4l1.6-0.1l1.5-0.5l1.3-0.6l1-0.8l0.9-1
		l0.6-1.6l0.3-2l-0.1-1.6l-0.8-1.7l-1.4-1.4l-0.7-0.3l-1.7-0.7L160,208l-1.9-0.5l-1-0.2l-4.4-1.3l-1.7-0.3l-2.9-0.3l-1.9-0.2
		l-2.4-0.4l-1.2,0.1l-1.1,0l-0.7,0.2l-0.6,0.5l-0.6,1.4l-0.8,2.7L138.3,211.6z"/>
</g>
<g class="st0">
	<path class="st1" d="M224.1,261.7l-0.2,1.9l-1,6.3l-0.2,1.9l-0.7,6.4l-0.1,1.3l-0.4,0.7l-1,0.2l-1.6,0l-5.9-0.6l-7.2-0.6l-5.8-1
		l-0.7-0.3l-0.3-0.4l0.1-1.2l0-2.9l0.2-1.9l0-1.8l0.1-1.8l0.2-6.3l0.3-1.9l0.9-6.3l0.3-1.9l0.2-6.4l0.2-1.9l0.4-6.3l0.8-10l0.4-6.4
		l0.2-1.9l0.6-6.3l0.8-10l0.3-6.4l0.5-1.3l0.7-0.4l1.2,0l0.9,0.1l1.8,0l2.8,0.4l1.9,0.2l5.4,0.2l7.2,0.6l1.3,0.3l0.2,0.7l0,1.3
		l0,3.1l0,1.9l-1,11.4l-0.4,6.3l-0.2,1.9l-0.7,6.4l-0.2,1.9l-0.4,6.3l-0.2,1.9l-0.8,6.3l-0.9,10.1L224.1,261.7z"/>
</g>
<g class="st0">
	<path class="st1" d="M310.2,272.1l-0.1,1.9l-0.6,6.3l-0.1,1.2l-0.5,0.8l-0.6,0.5l-15.3,0.2l-1.9,0l-6.2-0.6l-1.9,0.1l-6.1,0.4
		l-1.9,0.1l-8.1-0.1l-6.1-0.6l-1.9,0l-10.1,0.4l-4-0.3l-1.4-0.3l-0.8-0.6l-0.3-0.8l-0.2-1.3l-0.2-2.7l-0.1-1.9l0.1-1.8l0-1.8
		l0.6-6.2l0-1.9l0.2-6.2l-0.1-1.9l-0.2-6.2l-0.1-1.9l0.3-6.3l0.2-9.9l0.6-6.2l-0.1-1.9l-0.2-6.2l-0.1-1.9l0-2.8l0.3-3.5l0-1.8
		l0.5-6.1l0.1-1.6l0.4-0.9l0.6-0.5l0.9-0.1l1.5-0.2l7.6,0.6l7.1,0l1.9,0l7,0.6l1.9,0l7-0.3l1.9,0l15.9,0.5l2-0.1l4-0.3l2.9,0
		l1.6,0.4l0.7,0.6l0.2,0.8l0.2,1.5l-0.1,3.2l-0.3,2.9l0,2l0.1,2.9l0.1,1.8l-0.1,1.8l-0.3,1.4l-0.5,0.8l-0.6,0.5l-1.4,0.2l-0.9,0
		l-1.9,0.1l-11-0.4l-1.9,0l-6,0.1l-1.9,0l-6.1-0.3l-5.3-0.4l-1.8,0l-0.9,0.1l-1.2,0.2l-0.6,0.6l-0.1,0.7l-0.3,1.3l-0.3,2.8l0,1.9
		l0.1,2l0.1,1.3l0.2,0.8l0.5,0.6l1.3,0.4l3.7,0.3l3.7-0.2l11.1,0.2l13.1-0.5l3.6,0.3l1.3,0.3l0.7,0.6l0.3,0.7l0.1,1.3l0.2,2l0.1,2
		l-0.1,3.9l0.2,2.7l-0.3,3.5l-0.3,1.4l-0.5,0.8l-0.8,0.6l-1.2,0.2l-2.3,0l-5.3-0.7l-1.9-0.1l-9.4,0.4l-7.5-0.4l-1.9,0l-4.7-0.4
		l-2,0.1l-1.4,0.1l-0.6,0.3l-0.4,0.8l-0.1,1.8l-0.4,2.9l-0.1,1.9l0,2.6l0.1,1.2l0.3,0.8l0.5,0.5l1.3,0.1l6.4,0.3l1.9,0l6.3-0.4
		l8.3,0.6l1.9,0l8.3-0.3l1.8,0l1.8,0.1l4.2,0.5l0.7,0.4l0.5,0.7l0.1,1.3L310.2,272.1z"/>
</g>
<g class="st0">
	<path class="st1" d="M406.9,275.6l-1.5,0.6l-8.2,0.7l-6.4,0.4l-1.9,0.2l-5.2,0.7l-1.5,0.1l-1.1-0.4l-1-0.9l-4.2-4.9l-1.2-1.3
		l-4.2-4.7l-1.2-1.3l-3.7-5.1l-1.2-1.3l-4.2-4.7l-0.9-0.9l-0.7-0.3l-1.4,0l-3.8,0.1l-1.5,0.2l-0.9,0.8l-0.2,1.5l0.3,6.4l0.3,1.9
		l1,6.5l0.3,1.9l0.4,2.8l0.2,1.9l0,1.9l-0.1,1.4l-0.5,0.6l-1.3,0.5l-1.9,0.2l-5.6,0.1l-5.3,0.8l-1.9,0.2l-5.4,0.1l-1.4-0.1l-0.7-0.4
		l-0.3-1.1l-0.3-1.6l-0.3-1.7l0-3.1l0-1.9l-0.1-6.3l-0.2-1.9l-0.9-6.3l-0.3-1.9l-0.7-6.2l-0.2-1.9l-0.2-6.3l-0.2-1.9l-0.9-6.3
		l-0.2-1.9l-0.2-6.3l-0.2-1.9l-0.3-6.2l-0.2-1.9l-0.7-6.3l-0.2-1.9l-0.6-3.8l0-1.8l0.1-0.7l0.2-1.5l0.6-1l1.4-0.5l0.9-0.2l1.7-0.3
		l5.3-0.2l13.9-0.8l7.9-1.2l1.9-0.2l7.7-0.2l4.4-0.4l2-0.1l1.8,0.2l2.5,0.5l1.8,0.4l1.8,0.5l1.9,0.5l1.8,0.7l1.6,0.8l2.3,1.3
		l1.4,0.9l1.3,1.1l1.3,1.3l1.8,2.2l1.2,1.4l1.6,2.1l1,1.6l1,1.7l0.7,1.8l0.5,1.8l0.3,1.9l0.5,2.5l0.2,1.9l0,1.9l-0.1,2l-0.2,2
		l-0.3,1.9l-0.5,1.8l-0.7,1.8l-0.9,1.8l-0.9,1.6l-0.9,1.5l-0.9,1.4l-1.7,2l-1.2,1.2l-2.2,1.5l-1.3,0.9l-1.4,1l-1.5,0.5L383,247
		l0.5,0.9l4.7,5.6l1.2,1.3l4.7,5.3l1.3,1.3l4.7,5.5l1.3,1.3l4,3.9l1.2,1.2l0.7,1.2L406.9,275.6z M367.7,233.8l2.5-0.7l1.5-0.7
		l1.3-0.9l1-1.5l0.7-1.8l0.3-1.9l0-1.9l-0.3-2l-0.4-2l-0.6-1.7l-1-1.7l-1.2-1.3l-1.4-0.9l-1.7-0.6l-2.6-0.4l-1.9-0.1l-5.8,0.4
		l-1.9,0.2l-5.9,0.9l-1.4,0.2l-0.8,0.4l-0.6,0.8l0,1.3l0.4,2.7l0.4,1.8l0.4,2l0.3,2l0.3,6.4l0.2,1.3l0.3,0.7l0.8,0.3l1.4,0.1
		l6.1-0.1l1.9-0.2L367.7,233.8z"/>
</g>
<g class="st0">
	<path class="st1" d="M469.5,204.3l0.2,2l-0.1,1.9l-0.3,1.9l-0.6,1.8l-0.8,1.7l-1.1,1.7l-1.1,1.5l-1.2,1.6l-1.3,1.3l-4.3,4.7
		l-1.3,1.3l-1.2,1.7l-2,3.3l-0.7,1.8l-0.5,2l-0.1,3.4l-0.2,0.5l-0.3,0.3l-0.5,0.2l-1.2,0.5l-1,0.3l-3.7,1l-5.3,1.1l-0.9,0.3
		l-4.1,1.1l-2,0.3l-1.1,0.1l-1.4,0.1l-0.8-0.2l-0.4-0.4l-0.4-0.6l-0.1-1.3l-0.2-0.8l-0.1-1.8l0.1-0.8l0.1-2l0.3-2.2l0.3-1.9l0.3-0.9
		l0.5-1.7l0.2-0.8l0.9-1.9l1.2-1.9l1.1-1.5l0.5-0.7l1.2-1.2l0.6-0.5l1.2-1.1l0.6-0.5l1.5-1.3l1.6-1.5l0.7-0.7l1.3-1.5l0.5-0.8
		l0.8-1.7l0.4-2.1l-0.1-1.8l-0.7-1.5l-1.1-1.4l-1.3-1.2l-1.5-0.8l-1.4-0.4l-1.7-0.2l-1.9,0l-1.8,0.4l-1.6,0.7l-1.5,1l-1.3,1
		l-1.2,1.2l-0.8,1.2l-0.7,1.5l-0.2,1.8l-0.1,1.2l-0.2,0.6l-0.4,0.4l-0.7,0.3l-1.2,0.5l-0.8,0.3l-1.8,0.5l-7.3,1.5l-5.5,0.8l-1.8,0
		l-1.1,0l-0.4-0.2l-0.4-0.4l-0.4-1.1l-0.2-0.9l-0.2-1.6l-0.1-0.7l-0.1-2l0-2.3l0.2-1.8l0.1-0.9l0.4-1.5l0.2-0.9l0.6-1.9l1-2.1
		l1.3-1.9l1.1-1.4l0.6-0.6l1.1-1.1l0.6-0.6l1.2-1l0.7-0.5l3.1-2.3l0.8-0.4l1.7-1.1l1.7-1l0.7-0.3l1.5-0.7l0.7-0.3l1.7-0.6l2.7-0.8
		l1.7-0.5l2.6-0.5l4.1-0.4l6.2-0.5l2-0.1l2,0.1l2.1,0.3l2,0.4l2,0.5l3.9,1.4l1.8,0.8l1.9,0.9l1.8,1.1l1.5,1.4l1.3,1.6l1.2,1.7l2,3.7
		l0.7,1.8l0.7,2L469.5,204.3z M458.2,256.1l0,1.9l-0.2,2l-0.6,1.9l-0.7,1.8l-1.2,1.7l-1.4,1.2l-1.6,1.2l-1.9,0.9l-2,0.7l-2.2,0.3
		l-2.1,0.2l-2-0.2l-1.9-0.4l-1.8-0.6l-1.6-1l-1.5-1.3l-1.3-1.5l-1-1.7l-0.7-1.8l-0.4-1.8l0-1.9l0.2-2l0.6-1.8l0.8-1.7l1.3-1.5
		l1.4-1.4l1.6-1l1.6-0.8l2-0.8l2.2-0.4l2.1-0.2l1.9,0.1l1.8,0.2l1.8,0.7l1.8,1l1.6,1.2l1.2,1.4l1,1.7l0.7,1.8L458.2,256.1z"/>
</g>
<g class="st0">
	<path class="st1" d="M277.4,135.9l-0.1,0.6l-0.2,0.5l-0.3,0.8l-0.7,1.3l-0.4,0.8l-0.9,2.8l-0.4,0.8l-1.3,2.7l-0.4,0.8l-0.9,2.8
		l-0.3,0.8l-1,2.7l-0.3,0.8l-1.1,2.7l-0.4,0.8l-1.4,2.7l-0.3,0.8l-1.1,2.7l-0.3,0.8l-1.2,2.6l-0.3,0.8l-1.1,2.7l-0.2,0.5l-0.3,0.2
		l-0.6,0l-3.7,0l-0.8,0l-2.8,0.2l-0.9,0l-0.6-0.1l-0.4-0.4l-0.3-0.6l-1.1-2.7l-0.3-0.8l-1.3-2.8l-0.3-0.8l-1.1-2.7l-0.3-0.8
		l-0.9-2.8l-0.3-0.8l-1.2-2.6l-0.3-0.8l-1.3-2.8l-0.3-0.8l-1-2.7l-0.4-0.8l-1.2-2.6l-0.3-0.8l-0.9-2.8l-0.3-0.8l-0.9-1.5l-0.3-0.8
		l-0.1-0.5l-0.1-0.6l0.1-0.5l0.4-0.3l0.6-0.2l0.3,0h0.8l2.2,0.1l2.4,0l3.2,0.2l0.6,0l0.4,0.1l0.3,0.4l0.2,0.5l0.2,0.7l0.5,1.7
		l0.2,0.8l1.2,2.6l0.3,0.8l1,2.7l0.3,0.8l1,3.2l0.3,0.8l1.1,3.1l1.3,4l0.2,0.5l0.3,0.2l0.5-0.2l0.3-0.5l1.2-3.1l0.2-0.8l0.8-3.2
		l0.2-0.8l1.4-3l0.2-0.8l0.9-2.8l0.2-0.8l1.2-2.7l0.2-0.8l0.5-1.9l0.3-0.8l0.4-0.7l0.4-0.2l0.6-0.1h0.4l0.8,0l1.2,0.1h3.2l2.3-0.1
		l0.9,0.1l0.6,0.2l0.3,0.3L277.4,135.9z"/>
</g>
<g class="st0">
	<path class="st1" d="M314.4,169.7l0.2,0.7l-0.4,0.5l-0.5,0.2l-0.7,0.1h-0.7l-1.1-0.1l-0.8,0h-2.2l-3.1,0.2l-0.7-0.2l-0.3-0.4
		l-0.2-0.5l-1.5-4.2l-0.4-0.5l-0.4-0.1l-0.6-0.1l-3-0.2h-0.8l-3.8-0.1l-3,0h-0.8l-0.8,0h-2.3l-0.7,0.1l-0.4,0.2l-0.3,0.6l-1.1,3.4
		l-0.3,0.8l-0.6,0.7l-0.8,0.2h-0.8l-2.9-0.2H278l-3.1,0.2l-0.6,0l-0.6-0.3l-0.4-0.5l0-0.7l0.1-0.4l0.3-0.8l0.7-1.5l0.3-0.8l1.2-2.8
		l0.3-0.7l1.3-2.8l0.3-0.8l1.2-2.7l0.3-0.8l1.4-2.8l0.3-0.7l1.8-4.1l1.4-3l0.4-0.8l1.1-2.2l0.3-0.8l1-2.3l0.3-0.8l0.9-2l0.2-0.5
		l0.5-0.3l0.8-0.1l2.3-0.1h3.9l2.3,0.1l0.8,0.1l0.5,0.4l0.2,0.6l0.7,2l0.3,0.8l1.2,2.4l0.3,0.7l1.1,2.5l0.3,0.7l0.9,2.5l0.3,0.7
		l1.1,2.4l0.3,0.7l1.1,2.5l0.3,0.7l1,2.5l0.3,0.7l1.5,3.1l1.2,2.3l0.3,0.7l1.4,3.2L314.4,169.7z M297.7,155.6l-0.2-0.7l-1.1-3.4
		l-0.2-0.8l-1-3l-0.2-0.6l-0.5-0.4l-0.7-0.1l-0.5,0.1l-0.5,0.5l-1.4,3.4l-0.3,0.8l-1.3,3.4l-0.2,0.8l0.2,0.6l0.5,0.2l0.7,0.1h3.2
		l2.3,0.1l0.7-0.2l0.4-0.4L297.7,155.6z"/>
	<path class="st1" d="M353.8,142.9l0,0.8v7.4l0.1,2.9v0.8l0.1,6.6v0.9l0,0.4l-0.1,0.9l-0.1,2.4l0,2.9l0,0.7l-0.2,0.6l-0.4,0.5
		l-0.5,0.3l-0.5,0.2l-0.7,0l-2.6,0.1l-0.8,0l-1.2,0h-0.8l-0.7-0.2l-0.6-0.2l-0.6-0.4l-0.5-0.7l-0.8-1.5l-0.5-0.7l-1.9-2.5l-0.5-0.6
		l-2-2.4l-0.5-0.6l-1.8-2.6l-0.5-0.6l-2-2.4l-0.5-0.6l-1.9-2.5l-0.4-0.4l-0.4,0.1l-0.1,0.6l-0.1,2.5v0.8l0,2.5v0.8l0.1,2.8v0.8
		l-0.2,2.8l0,0.8l0.3,2l0.1,0.8l-0.2,0.7l-0.3,0.3l-0.4,0.1l-0.6,0.1l-0.4,0l-0.8,0.1l-2.3-0.1h-0.8l-2,0.1h-0.8l-0.8,0l-0.5-0.1
		l-0.4-0.2l-0.2-0.3l-0.1-0.5l0-0.4V169l0.1-1.6l0.1-0.8l-0.2-2.6v-0.8l0.1-6.1l0.1-0.8l0.1-2.7l0-0.8v-3.5l-0.2-2.7v-0.8l0.2-2.7
		l0-0.8l-0.2-2.7l0-0.8v-1.2l0-0.8l0.1-0.8l0.1-0.5l0.2-0.3l0.3-0.2l0.5-0.1l1.5-0.1l1.5,0.1h3.8l0.6,0l0.2,0.2l0.3,0.4l2.1,2.3
		l0.5,0.6l1.9,2.4l0.5,0.6l1.8,2.5l0.5,0.6l1.8,2.5l0.5,0.6l1.9,2.4l0.5,0.6l1.8,2.5l0.4,0.4l0.4,0l0.3-0.2v-0.5l-0.3-2.1l-0.1-0.8
		l0.2-2.2V147l-0.2-3v-0.8l0.2-3l0-0.8l-0.2-1.9v-1.2l0.2-0.6l0.2-0.4l0.3-0.2l0.6-0.1h0.5l0.9,0l2.2,0.1h0.8l1.7-0.1l0.8,0l1.2,0
		l0.5,0.1l0.3,0.1l0.3,0.4l0.1,0.7l0,0.5l0,0.9l-0.1,1.5l-0.1,0.8L353.8,142.9z"/>
</g>
<g class="st0">
	<path class="st2" d="M240.9,23.4l-3.3,15.4l-0.4,1.8l-1,6.8l-0.4,1.8l-1.8,6.9l-0.3,1.8l-0.9,6.8l-0.4,2l-2,6.5l-0.4,2l-0.8,6.9
		l-0.3,1.8l-2,6.8l-0.3,1.8l-1.1,6.8l-0.3,1.9l-1,6.8l-0.3,1.2l-0.5,0.7l-0.8,0.2l-7.8,1l-9.1,0.8l-1.2-0.1l-0.7-0.8l-3.8-5.2
		l-0.8-1.5l-3-5.7l-0.7-1.5l-3-5.6l-0.8-1.5l-3.2-5.5l-0.9-1.5l-3-5.5l-0.7-1l-0.3,0.1l-0.3,1.1l-1.2,6.2l-0.3,1.7l-1.9,6l-0.3,1.7
		l-0.9,6.4l-0.3,1.7l-1.1,6.2l-0.4,1.7l-1.3,6.1l-0.4,1.4l-1.2,0.8l-7.3,0.5l-1.9,0.3l-7.1,1.7l-1.1-0.4l-0.7-1.3l-4.2-5.7l-0.8-1.6
		l-2.6-6.3l-0.8-1.6l-3.9-6l-1-1.6l-3.4-5.9l-0.9-1.8l-3-6.3l-0.8-1.6l-8-13.7l-1-1.6l-3.1-6.2l-1.1-1.7l-3.8-5.6l-1.1-1.6l-3.7-6.2
		l-0.3-1.4l0.6-0.9l1.2-0.5l1.7-0.3l4.6-0.3l1.9-0.3l8-1.1l6.2-1l1.5-0.1l0.5,0.4l0.4,1.1l3.8,7.2l0.8,1.6l3.5,7l0.8,1.6l4.1,6.5
		l0.8,1.6l3.4,6.7l0.6,1.8l2.5,7.1l0.6,1l0.7,0l0.6-1l1.1-6.2l0.3-1.7l0.6-6.4l0.2-1.8l0.9-5.9l0.2-1.8l1-6.3l0.2-1.7l0.9-6.3
		l0.3-1.7l1-5.2l0.3-1.3l0.5-0.7l1.2-0.4l5.7-1.4l1.7-0.4l2.6-0.3l1.7-0.3l1.8-0.2l1.2,0.3l0.9,1.1l0.5,0.9l0.9,1.5l1.8,3l0.8,1.5
		l2.7,5.7l0.7,1.5l2.8,5.7l0.7,1.5l2.3,5.9l0.8,1.5l3.6,5.2l0.7,1.5l0.8,2.6l0.6,1.8l0.7,1.7l0.8,0.8l0.7-0.2l0.4-1.4l0.4-6.9
		l0.2-1.8l0.6-2.6l0.3-1.8l0.5-2.7l0.3-1.9l0.3-5.6l0.3-1.9l1.2-5.5l0.4-1.8l1.4-5.5l0.3-1.8l0.5-4.6l0.2-1.5l0.6-0.9l1.4-0.4
		l6.2-0.5l1.9-0.3L231,23l1.8-0.3l6.2-0.5l1.3-0.2l0.5,0.3L240.9,23.4z"/>
</g>
<g class="st0">
	<path class="st2" d="M284.3,88.4l0.1,1.9l-0.3,6.3l0.1,1.9l0.1,6.4l0,1.3l-0.3,0.7l-0.9,0.3l-1.6,0.2l-6,0l-7.3,0.2l-5.9-0.3
		l-0.7-0.2l-0.4-0.3l0-1.2l-0.3-2.9l-0.1-1.9l-0.2-1.8l0-1.8L260,91l0.1-1.9l0.2-6.3l0.1-1.9l-0.5-6.4l-0.1-1.9l-0.3-6.3l-0.3-10.1
		l-0.3-6.4l-0.1-1.9l-0.1-6.3l-0.3-10.1l-0.4-6.4l0.3-1.3l0.7-0.5l1.2-0.1l0.9,0L263,23l2.8,0l1.9-0.1l5.4-0.4l7.3-0.2l1.3,0.2
		l0.3,0.7l0.2,1.3l0.3,3l0.2,1.9l0.3,11.5l0.3,6.3l0.1,1.9l0.1,6.4l0.1,1.9l0.3,6.3l0.1,1.9l-0.1,6.3l0.3,10.2L284.3,88.4z"/>
</g>
<g class="st0">
	<path class="st2" d="M364.6,104.2l-0.2,1.9l-0.1,1.1l-0.4,1.4l-0.7,0.8l-0.8,0.3l-1.2,0.2l-0.9-0.1l-1.6,0l-12.9-1.4l-8.8-0.5
		l-10.6,0.1l-6.7-0.9l-8.6-0.5l-5.4,0l-1.8-0.1l-1.6-0.2l-1.3-0.3l-0.8-0.5l-0.5-0.7l-0.2-1.4l0.1-1.9l0.8-4.4l0.2-1.7l-0.1-6.2
		l0.1-1.9l0.6-6.2l0.1-1.9l1.1-14.2l0.1-1.9l0.4-14.3l0.1-1.9l0.2-6.2l0.6-9.9l0-3.5l0.1-1.8l0.2-1l0.4-1.5l0.5-0.7l0.8-0.3l1.3-0.2
		l0.9,0.1l1.8,0l5.7,0.7l1.9,0.1l8.3,0.4l1.2,0.1l0.8,0.5l0.5,0.9l-0.6,10.2l-0.2,6.8l-0.1,1.9l-0.7,6.8l-0.1,1.9l-0.2,6.8l-0.1,1.9
		l0,6.8l-0.1,1.9l-1.6,15.4l0.1,1.2l0.1,0.6l0.2,0.6l0.6,0.5l1.4,0.3l4,0.5l3.5,0l1.9,0.1l16.8,0.7l1.9,0l4-0.2l1.9,0l1.8,0.1
		l1.4,0.4l0.8,0.7l0.3,0.8l0,1.3l-0.3,6.5l0,1.9L364.6,104.2z"/>
</g>
<g class="st0">
	<path class="st2" d="M461,85.7l-0.5,1.9l-0.6,2.7l-0.7,1.8l-1.3,2.5l-0.9,1.7l-1,1.6l-1,1.7l-1.1,1.8l-1,1.6l-1.7,2.3l-1.2,1.3
		l-2,1.5l-1.4,1.1l-2.3,1.5l-3,2.1l-1.7,1l-2.5,1.3l-1.7,0.6l-2.5,0.8l-1.6,0.4l-2.7,0.4l-1.8,0.3l-1.9,0.1l-1.9,0l-7.2-0.3
		l-1.7-0.2l-2.6-0.2l-1.8-0.3l-3.7-0.8l-2.9-0.8l-1.8-0.3l-3.7-0.5l-2.9-0.4l-2-0.3l-1.7-0.4l-8.1-1.5l-1.7-0.4l-4.9-1.4l-0.8-0.6
		l-0.5-0.7l0-1.3l0.2-1.9l0.3-0.9l0.9-3.4l0.3-1.6l0.6-2.6l0.3-1.7l0.5-1.8l0.3-1.8l1-6.1l0.3-1.8l0.9-6.1l0.4-1.7l0.6-2.5l0.6-1.7
		l0.5-1.9l0.3-1.8l0.3-3l0.3-2l0.2-1l0.3-2l1.6-6l0.3-1.8l1-6.1l0.3-1.8l0.8-6.2l0.8-4.5l0.5-1.8l0.7-1.7l0.5-1.2l0.6-0.6l1.3-0.1
		l2,0.1l1.8,0.1l1.9,0.2l10.1,2l1.8,0.3l5.5,1.4l0.9,0.3l2.1,0.4l4.9,0.7l1.7,0.2l1.8,0.3l2.8,0.8l3.6,0.9l1.8,0.6l2.9,1l1.8,0.7
		l1.6,0.8l3.9,2.3l1.6,1.1l1.6,1.2l1.4,1.2l3.3,3.4l1.3,1.5l1.2,1.4l2.1,2.9l0.9,1.4l0.8,1.5l0.5,1.6l0.8,2.8l0.4,1.9l0.2,1.9l0.3,2
		l0.2,1.9l0.1,1.9l0,2.6l0,1.9l0,2l-0.1,1.9l-0.4,2.8l-0.2,1.9L461,85.7z M432.9,90.7l1.1-1.6l1.1-1.8l0.8-1.6l0.9-2.4l0.4-1.6
		l0.6-2.6l0.7-3.7l0.2-1.9l0.2-2.7l-0.1-1.8l-0.1-0.7l-0.6-1.9l-1.3-2.7l-0.5-0.7l-0.9-1.5l-1-1.5l-1.2-1.3l-2.2-2l-1.5-1l-1.5-0.6
		l-1.8-0.7l-2.9-0.7l-1.9-0.5l-2.9-0.5l-2.5-0.6l-1.7-0.2l-2.6-0.1l-1.3,0.1l-0.7,0.5l-0.6,1.3l-0.3,1l-0.4,1.7l-0.4,3.5l-0.2,1.9
		l-0.2,2.6l-0.1,1.9l-0.2,1.9l-0.3,1.8l-0.6,2.5l-1,5.5l-0.5,1.9l-0.5,1.8l-0.7,2.5l-0.3,1.6l-0.6,2.6l-0.2,1.7l-0.2,2.8l0.2,1.4
		L403,95l1.4,0.4l10.8,1.3l2.7,0.4l1.9,0l2.1-0.2l2-0.3l1.9-0.5l1.7-0.8l2.4-1.5l1.4-1.2L432.9,90.7z"/>
</g>
<g class="st0">
	<path class="st2" d="M181.7,256l-0.4,1.8l-0.7,3l-0.6,1.7l-1.2,2.3l-0.9,1.5l-1.5,2l-1.3,1.3l-2.2,1.9l-1.5,1.1l-3.2,1.6l-1.6,0.7
		l-1.7,0.6l-1.9,0.5l-1.9,0.3l-1.8,0.3l-5.4,0.2l-2.7-0.1l-1.9-0.2l-2.8-0.2l-1.8-0.3l-6.4-0.8l-10.1-1.6l-6.4-1.4l-1.8-0.3
		l-6.4-0.8l-1.7-0.3l-4.4-0.8l-1.8-0.5l-1.6-0.5l-0.9-0.5l-0.5-0.7l0-1.3l0.1-1.6l0.4-1.7l0.3-1.8l0.3-0.9l0.3-2l1.3-6.1l0.2-1.9
		l0.3-2.9l0.2-1.8l0.1-1.6l0.3-1.7l0.6-2.9l0.8-5.1l1.4-6.1l0.3-1.8l0.7-6.2l0.3-1.8l0.8-6.1l0.4-1.8l1.3-6.1l0.4-1.8l0.5-6.2
		l0.2-1.9l0.2-3.5l0.4-2.7l0.7-1.4l1.3-0.5l1.7,0l1.9,0.2l12.7,1.6l10,2.1l6.3,0.7l1.8,0.3l6.3,1.1l1.8,0.3l6.6,1.5l1.9,0.5l1.9,0.7
		l4.2,2.1l1.6,1.1l2,1.5l1.3,1.3l1.7,1.9l1,1.5l1.3,2.2l0.6,1.6l0.9,2.4l0.4,1.7l0.3,1.8l0.1,1.9l0,3.1l-0.2,1.9l-0.4,1.9l-0.7,1.9
		l-1.1,2.6l-0.9,1.5l-1.6,2l-1.4,1.1l-2.1,1.4l-1.1,0.8l-0.5,0.8l0.2,1l0.9,1.3l1.2,1.5l1.2,1.7l1.4,2.7l0.8,1.9l0.5,2l0.3,1
		l0.3,1.9l0.2,2l-0.1,2L181.7,256z M154.8,257.7l1.1-0.7l0.6-0.6l1.1-1.6l0.6-1.8l0.2-0.7l0.1-1.6l-0.1-1.7l-0.7-1.8l-0.6-0.9
		l-1.3-1.7l-1.7-1.3l-1.6-0.8l-0.8-0.4l-1.6-0.4l-5.2-0.6l-2-0.2l-6.8-1.1l-1.8-0.2l-2.1,0l-1.1,0.2l-0.4,0.5l-0.3,1.4l-0.3,2
		l-0.2,1.9l-0.4,2.5l-0.5,1.9l-0.4,2.3l0,1.3l0.4,0.8l0.7,0.6l1.5,0.5l16.4,2.2l4,0.4l1.9-0.1L154.8,257.7z M134,216.3l0,0.9
		l-0.2,1.9l0,1.3l0.4,0.8l0.9,0.6l1.4,0.3l4.6,0.7l2,0.2l2,0.3l2.6,0.6l3.9,0.8l2.5,0.4l1.6-0.1l1.5-0.5l1.3-0.6l1-0.8l0.9-1
		l0.6-1.6l0.3-2l-0.1-1.6l-0.8-1.7l-1.4-1.4l-0.7-0.3l-1.7-0.7l-0.8-0.2l-1.9-0.5l-1-0.2l-4.4-1.3l-1.7-0.3l-2.9-0.3l-1.9-0.2
		l-2.4-0.4l-1.2,0.1l-1.1,0l-0.7,0.2l-0.6,0.5l-0.6,1.4l-0.8,2.7L134,216.3z"/>
</g>
<g class="st0">
	<path class="st2" d="M219.7,266.4l-0.2,1.9l-1,6.3l-0.2,1.9l-0.7,6.4l-0.1,1.3l-0.4,0.7l-1,0.2l-1.6,0l-5.9-0.6l-7.2-0.6l-5.8-1
		l-0.7-0.3l-0.3-0.4l0.1-1.2l0-2.9l0.2-1.9l0-1.8l0.1-1.8l0.2-6.3l0.3-1.9l0.9-6.3l0.3-1.9l0.2-6.4l0.2-1.9l0.4-6.3l0.8-10l0.4-6.4
		l0.2-1.9l0.6-6.3l0.8-10l0.3-6.4l0.5-1.3l0.7-0.4l1.2,0l0.9,0.1l1.8,0l2.8,0.4l1.9,0.2l5.4,0.2l7.2,0.6l1.3,0.3l0.2,0.7l0,1.3
		l0,3.1l0,1.9l-1,11.4l-0.4,6.3l-0.2,1.9l-0.7,6.4l-0.2,1.9l-0.4,6.3l-0.2,1.9l-0.8,6.3l-0.9,10.1L219.7,266.4z"/>
</g>
<g class="st0">
	<path class="st2" d="M305.9,276.7l-0.1,1.9l-0.6,6.3l-0.1,1.2l-0.5,0.8l-0.6,0.5l-15.3,0.2l-1.9,0l-6.2-0.6l-1.9,0.1l-6.1,0.4
		l-1.9,0.1l-8.1-0.1l-6.1-0.6l-1.9,0l-10.1,0.4l-4-0.3l-1.4-0.3l-0.8-0.6l-0.3-0.8l-0.2-1.3l-0.2-2.7l-0.1-1.9l0.1-1.8l0-1.8
		l0.6-6.2l0-1.9l0.2-6.2l-0.1-1.9l-0.2-6.2l-0.1-1.9l0.3-6.3l0.2-9.9l0.6-6.2l-0.1-1.9l-0.2-6.2l-0.1-1.9l0-2.8l0.3-3.5l0-1.8
		l0.5-6.1l0.1-1.6l0.4-0.9l0.6-0.5l0.9-0.1l1.5-0.2l7.6,0.6l7.1,0l1.9,0l7,0.6l1.9,0l7-0.3l1.9,0l15.9,0.5l2-0.1l4-0.3l2.9,0
		l1.6,0.4l0.7,0.6l0.2,0.8l0.2,1.5l-0.1,3.2l-0.3,2.9l0,2l0.1,2.9l0.1,1.8l-0.1,1.8l-0.3,1.4l-0.5,0.8l-0.6,0.5l-1.4,0.2l-0.9,0
		l-1.9,0.1l-11-0.4l-1.9,0l-6,0.1l-1.9,0l-6.1-0.3l-5.3-0.4l-1.8,0l-0.9,0.1l-1.2,0.2l-0.6,0.6l-0.1,0.7l-0.3,1.3l-0.3,2.8l0,1.9
		l0.1,2l0.1,1.3l0.2,0.8l0.5,0.6l1.3,0.4l3.7,0.3l3.7-0.2l11.1,0.2l13.1-0.5l3.6,0.3l1.3,0.3l0.7,0.6l0.3,0.7l0.1,1.3l0.2,2l0.1,2
		l-0.1,3.9l0.2,2.7l-0.3,3.5l-0.3,1.4l-0.5,0.8l-0.8,0.6l-1.2,0.2l-2.3,0l-5.3-0.7l-1.9-0.2l-9.4,0.4l-7.5-0.4l-1.9,0l-4.7-0.4
		l-2,0.1l-1.4,0.1l-0.6,0.3l-0.4,0.8l-0.1,1.8l-0.4,2.9l-0.1,1.9l0,2.6l0.1,1.2l0.3,0.8l0.5,0.5l1.3,0.1l6.4,0.3l1.9,0l6.3-0.4
		l8.3,0.6l1.9,0l8.3-0.3l1.8,0l1.8,0.1l4.2,0.5l0.7,0.4l0.5,0.7l0.1,1.3L305.9,276.7z"/>
</g>
<g class="st0">
	<path class="st2" d="M402.6,280.2l-1.5,0.6l-8.2,0.7l-6.4,0.4l-1.9,0.2l-5.2,0.7l-1.5,0.1l-1.1-0.4l-1-0.9l-4.2-4.9l-1.2-1.3
		l-4.2-4.7l-1.2-1.3l-3.7-5.1l-1.2-1.3l-4.2-4.7l-0.9-0.9l-0.7-0.3l-1.4,0l-3.8,0.1l-1.5,0.2l-0.9,0.8l-0.2,1.5l0.3,6.4l0.3,1.9
		l1,6.5l0.3,1.9l0.4,2.8l0.2,1.9l0,1.9l-0.1,1.4l-0.5,0.6l-1.3,0.5l-1.9,0.2l-5.6,0.1l-5.3,0.8l-1.9,0.2l-5.4,0.1l-1.4-0.1l-0.7-0.4
		l-0.3-1.1l-0.3-1.6l-0.3-1.7l0-3.1l0-1.9l-0.1-6.3l-0.2-1.9l-0.9-6.3l-0.3-1.9l-0.7-6.2l-0.2-1.9l-0.2-6.3l-0.2-1.9l-0.9-6.3
		l-0.2-1.9l-0.2-6.3l-0.2-1.9l-0.3-6.2l-0.2-1.9l-0.7-6.3l-0.2-1.9l-0.6-3.8l0-1.8l0.1-0.7l0.2-1.5l0.6-1l1.4-0.5l0.9-0.2l1.7-0.3
		l5.3-0.2l13.9-0.8l7.9-1.2l1.9-0.2l7.7-0.2l4.4-0.4l2-0.1l1.8,0.2l2.5,0.5l1.8,0.4l1.8,0.5l1.9,0.5l1.8,0.7l1.6,0.8l2.3,1.3
		l1.4,0.9l1.3,1.1l1.3,1.3l1.8,2.2l1.2,1.4l1.6,2.1l1,1.6l1,1.7l0.7,1.8l0.5,1.8l0.3,1.9l0.5,2.5l0.2,1.9l0,1.9l-0.1,2l-0.2,2
		l-0.3,1.9l-0.5,1.8l-0.7,1.8l-0.9,1.8l-0.9,1.6l-0.9,1.5l-0.9,1.4l-1.7,2l-1.2,1.2l-2.2,1.5l-1.3,0.9l-1.4,0.9l-1.5,0.5l-0.9,0.4
		l0.5,0.9l4.7,5.6l1.2,1.3l4.7,5.3l1.3,1.3l4.7,5.5l1.3,1.3l4,3.9l1.2,1.2l0.7,1.2L402.6,280.2z M363.3,238.5l2.5-0.7l1.5-0.7
		l1.3-0.9l1-1.5l0.7-1.8l0.3-1.9l0-1.9l-0.3-2l-0.4-2l-0.6-1.7l-1-1.7l-1.2-1.3l-1.4-0.9l-1.7-0.6l-2.6-0.4l-1.9-0.1l-5.8,0.4
		l-1.9,0.2l-5.9,0.9l-1.4,0.2l-0.8,0.4l-0.6,0.8l0,1.3l0.4,2.7l0.4,1.8l0.4,2l0.3,2l0.3,6.4l0.2,1.3l0.3,0.7l0.8,0.3l1.4,0.1
		l6.1-0.1l1.9-0.2L363.3,238.5z"/>
</g>
<g class="st0">
	<path class="st2" d="M465.1,209l0.2,2l-0.1,1.9l-0.3,1.9l-0.6,1.8l-0.8,1.7l-1.1,1.7l-1.1,1.5L460,223l-1.3,1.3l-4.3,4.7l-1.3,1.3
		l-1.2,1.7l-2,3.3l-0.7,1.8l-0.5,2l-0.1,3.4l-0.2,0.5l-0.3,0.3l-0.5,0.2l-1.2,0.5l-1,0.3l-3.7,1l-5.3,1.1l-0.9,0.3l-4.1,1.1l-2,0.3
		l-1.1,0.1l-1.4,0.1l-0.8-0.2l-0.4-0.4l-0.4-0.6l-0.1-1.3l-0.2-0.8l-0.1-1.8l0.1-0.8l0.1-2l0.3-2.2l0.3-1.9l0.3-0.9l0.5-1.7l0.2-0.8
		l0.9-1.9l1.2-1.9l1.1-1.5l0.5-0.7l1.2-1.2l0.6-0.5l1.2-1.1l0.6-0.5l1.5-1.3l1.6-1.5l0.7-0.7l1.3-1.5l0.5-0.8l0.8-1.7l0.4-2.1
		l-0.1-1.8l-0.7-1.5l-1.1-1.4l-1.3-1.2l-1.5-0.8l-1.4-0.4l-1.7-0.2l-1.9,0l-1.8,0.4l-1.6,0.7l-1.5,1l-1.3,1l-1.2,1.2l-0.8,1.2
		l-0.7,1.5l-0.2,1.8l-0.1,1.2l-0.2,0.6l-0.4,0.4l-0.7,0.3l-1.2,0.5l-0.8,0.3l-1.8,0.5l-7.3,1.5l-5.5,0.8l-1.8,0l-1.1,0l-0.4-0.2
		l-0.4-0.4l-0.4-1.1l-0.2-0.9l-0.2-1.6l-0.1-0.7l-0.1-2l0-2.3l0.2-1.8l0.1-0.9l0.4-1.5l0.2-0.9l0.6-1.9l1-2.1l1.3-1.9l1.1-1.4
		l0.6-0.6l1.1-1.1l0.6-0.6l1.2-1l0.7-0.5l3.1-2.3l0.8-0.4l1.7-1.1l1.7-1l0.7-0.3l1.5-0.7l0.7-0.3l1.7-0.6l2.7-0.8l1.7-0.5l2.6-0.5
		l4.1-0.4l6.2-0.5l2-0.1l2,0.1l2.1,0.3l2,0.4l2,0.5l3.9,1.4l1.8,0.8l1.9,0.9l1.8,1.1l1.5,1.4l1.3,1.6l1.2,1.7l2,3.7l0.7,1.8l0.7,2
		L465.1,209z M453.9,260.7l0,1.9l-0.2,2l-0.6,1.9l-0.7,1.8l-1.2,1.7l-1.4,1.2l-1.6,1.2l-1.9,0.9l-2,0.7l-2.2,0.3l-2.1,0.2l-2-0.2
		l-1.9-0.4l-1.8-0.6l-1.6-1l-1.5-1.3l-1.3-1.5l-1-1.7l-0.7-1.8l-0.4-1.8l0-1.9l0.2-2l0.6-1.8l0.8-1.7l1.3-1.5l1.4-1.4l1.6-1l1.6-0.8
		l2-0.8l2.2-0.5l2.1-0.2l1.9,0.1l1.8,0.2l1.8,0.7l1.8,1l1.6,1.2l1.2,1.4l1,1.7l0.7,1.8L453.9,260.7z"/>
</g>
<g class="st0">
	<path class="st2" d="M273.1,140.5l-0.1,0.6l-0.2,0.5l-0.3,0.8l-0.7,1.3l-0.4,0.8l-0.9,2.8l-0.4,0.8l-1.3,2.7l-0.4,0.8l-0.9,2.8
		l-0.3,0.8l-1,2.7l-0.3,0.8l-1.1,2.7l-0.4,0.8l-1.4,2.7l-0.3,0.8l-1.1,2.7l-0.3,0.8l-1.2,2.6l-0.3,0.8l-1.1,2.7l-0.2,0.5l-0.3,0.2
		l-0.6,0l-3.7,0l-0.8,0l-2.8,0.2l-0.9,0l-0.6-0.1l-0.4-0.4l-0.3-0.6l-1.1-2.7l-0.3-0.8l-1.3-2.8l-0.3-0.8l-1.1-2.7l-0.3-0.8
		l-0.9-2.8l-0.3-0.8l-1.2-2.6l-0.3-0.8l-1.3-2.8l-0.3-0.8l-1-2.7l-0.4-0.8l-1.2-2.6l-0.3-0.8l-0.9-2.8l-0.3-0.8l-0.9-1.5l-0.3-0.8
		l-0.1-0.5l-0.1-0.6l0.1-0.5l0.4-0.3l0.6-0.2l0.3,0h0.8l2.2,0.1l2.4,0l3.2,0.2l0.6,0l0.4,0.1l0.3,0.4l0.2,0.5l0.2,0.7l0.5,1.7
		l0.2,0.8l1.2,2.6l0.3,0.8l1,2.7l0.3,0.8l1,3.2l0.3,0.8l1.1,3.1l1.3,4l0.2,0.5l0.3,0.2l0.5-0.2l0.3-0.5l1.2-3.1l0.2-0.8l0.8-3.2
		l0.2-0.8l1.4-3l0.2-0.8l0.9-2.8l0.2-0.8l1.2-2.7l0.2-0.8l0.5-1.9l0.3-0.8l0.4-0.7l0.4-0.2l0.6-0.1h0.4l0.8,0l1.2,0.1h3.2l2.3-0.1
		l0.9,0.1l0.6,0.2l0.3,0.3L273.1,140.5z"/>
</g>
<g class="st0">
	<path class="st2" d="M310.1,174.3l0.2,0.7l-0.3,0.5l-0.6,0.2l-0.7,0.1H308l-1.2-0.1l-0.8,0h-2.2l-3.1,0.2l-0.7-0.2l-0.3-0.4
		l-0.2-0.5l-1.5-4.2l-0.4-0.5l-0.4-0.1l-0.6-0.1l-3-0.2h-0.8l-3.8-0.1l-3,0h-0.8l-0.8,0h-2.3l-0.6,0.1l-0.4,0.2l-0.3,0.6l-1.1,3.4
		l-0.3,0.8l-0.6,0.7l-0.8,0.2h-0.8l-2.9-0.2h-0.8l-3.1,0.2l-0.6,0l-0.6-0.3l-0.4-0.5l0-0.7l0.1-0.4l0.3-0.8l0.7-1.5l0.3-0.8l1.2-2.8
		l0.3-0.7l1.3-2.8l0.3-0.8l1.2-2.7l0.3-0.8l1.4-2.8l0.3-0.7l1.8-4.1l1.4-3l0.4-0.8l1.1-2.2l0.4-0.8l1-2.3l0.3-0.8l0.9-2l0.3-0.5
		l0.5-0.3l0.7-0.1l2.3-0.1h3.9l2.3,0.1l0.9,0.1l0.5,0.4l0.2,0.6l0.7,2l0.3,0.8l1.2,2.4l0.3,0.7l1.1,2.5l0.3,0.7l0.9,2.5l0.3,0.7
		l1.1,2.4l0.3,0.7l1.1,2.5l0.3,0.7l1,2.5l0.3,0.7l1.5,3.1l1.2,2.3l0.3,0.7l1.3,3.2L310.1,174.3z M293.4,160.2l-0.2-0.7l-1.1-3.4
		l-0.2-0.8l-1-3l-0.2-0.6l-0.5-0.4l-0.6-0.1l-0.6,0.1l-0.5,0.5l-1.3,3.4l-0.3,0.8l-1.3,3.4l-0.1,0.8l0.1,0.6l0.5,0.2l0.7,0.1h3.2
		l2.4,0.1l0.6-0.2l0.4-0.4L293.4,160.2z"/>
	<path class="st2" d="M349.5,147.5l-0.1,0.8v7.4l0.2,2.9v0.8l0.1,6.6v0.9l0,0.4l0,0.9l-0.2,2.4l0.1,2.9l-0.1,0.7l-0.2,0.6l-0.4,0.5
		l-0.5,0.3l-0.5,0.2l-0.7,0l-2.6,0.1l-0.8,0l-1.3,0h-0.8l-0.7-0.2l-0.6-0.2l-0.6-0.4l-0.5-0.7l-0.8-1.5l-0.4-0.7l-2-2.5l-0.5-0.6
		l-2-2.4l-0.5-0.6l-1.8-2.6l-0.5-0.6l-2-2.4l-0.5-0.6l-1.9-2.5l-0.4-0.4l-0.3,0.1L326,158l-0.1,2.5v0.8l0,2.5v0.8l0.1,2.8v0.8
		l-0.2,2.8l0.1,0.8l0.3,2l0.1,0.8l-0.2,0.7l-0.3,0.3l-0.3,0.1l-0.6,0.1l-0.4,0l-0.9,0.1l-2.3-0.1h-0.8l-2,0.1h-0.8l-0.8,0l-0.6-0.1
		l-0.4-0.2l-0.2-0.3l-0.1-0.5l-0.1-0.4v-0.8l0.1-1.6l0.1-0.8l-0.2-2.6v-0.8l0.1-6.1l0.1-0.8l0.2-2.7l0-0.8v-3.5l-0.2-2.7v-0.8
		l0.2-2.7l0-0.8l-0.2-2.7l0-0.8v-1.2l0-0.8l0.1-0.8l0.1-0.5l0.1-0.3l0.3-0.2l0.6-0.1l1.5-0.1l1.5,0.1h3.8l0.6,0l0.2,0.2l0.3,0.4
		l2.1,2.3l0.5,0.6l1.9,2.4l0.5,0.6l1.9,2.5l0.5,0.6l1.8,2.5l0.5,0.6l1.9,2.4l0.5,0.6l1.8,2.5l0.4,0.4l0.4,0l0.3-0.2v-0.5l-0.3-2.1
		l-0.1-0.8l0.2-2.2v-0.8l-0.2-3v-0.8l0.2-3l0-0.8l-0.1-1.9v-1.2l0.1-0.6l0.2-0.4l0.3-0.2l0.6-0.1h0.5l0.8,0l2.2,0.1h0.8l1.7-0.1
		l0.8,0l1.2,0l0.5,0.1l0.4,0.1l0.3,0.4l0.1,0.7l0,0.5l0.1,0.9l-0.1,1.5l-0.1,0.8L349.5,147.5z"/>
</g>
<circle class="st2" cx="8.4" cy="236.5" r="8.4"/>
<path class="st2" d="M5.8,244.5c0,0,20.8,4.7,66.7,50.5c-18.4-46.5-60.8-66.2-60.8-66.2"/>
<ellipse transform="matrix(0.6424 -0.7664 0.7664 0.6424 -162.4415 133.0684)" class="st2" cx="61.4" cy="240.6" rx="3.4" ry="3.4"/>
<path class="st2" d="M59.3,243.3c0,0,7.3,4.6,18.5,28.2c-0.6-20.3-14.1-33.5-14.1-33.5"/>
<circle class="st2" cx="559.4" cy="224.9" r="9"/>
<path class="st2" d="M562.2,233.4c0,0-22.3,5-71.5,54.2c19.7-49.9,65.2-71.1,65.2-71.1"/>
<ellipse transform="matrix(0.7664 -0.6424 0.6424 0.7664 -29.8828 376.442)" class="st2" cx="502.6" cy="229.3" rx="3.6" ry="3.6"/>
<path class="st2" d="M504.8,232.2c0,0-7.8,4.9-19.8,30.3c0.7-21.7,15.1-35.9,15.1-35.9"/>
</svg>
